<?xml version="1.0" standalone="no"?>
<!DOCTYPE svg PUBLIC "-//W3C//DTD SVG 20010904//EN"
 "http://www.w3.org/TR/2001/REC-SVG-20010904/DTD/svg10.dtd">
<svg version="1.0" xmlns="http://www.w3.org/2000/svg"
 width="500.000000pt" height="500.000000pt" viewBox="0 0 500.000000 500.000000"
 preserveAspectRatio="xMidYMid meet">
<metadata>
Created by potrace 1.11, written by Peter Selinger 2001-2013
</metadata>
<g transform="translate(0.000000,500.000000) scale(0.100000,-0.100000)"
fill="#000000" stroke="none">
<path d="M0 2500 l0 -2500 2500 0 2500 0 0 2500 0 2500 -2500 0 -2500 0 0
-2500z m1500 -5 l0 -515 -515 0 -515 0 0 515 0 515 515 0 515 0 0 -515z m324
225 c18 -18 -8 -34 -33 -20 -27 14 -63 4 -59 -18 2 -9 19 -20 38 -25 68 -17
93 -70 48 -101 -39 -27 -128 -14 -128 19 0 18 9 19 46 5 15 -6 35 -8 45 -5 32
10 21 34 -21 46 -22 7 -47 20 -56 30 -21 23 -12 62 18 77 26 13 86 8 102 -8z
m236 5 c0 -10 -10 -15 -30 -15 l-30 0 0 -85 c0 -78 -2 -85 -20 -85 -18 0 -20
7 -20 85 l0 85 -30 0 c-20 0 -30 5 -30 15 0 12 16 15 80 15 64 0 80 -3 80 -15z
m199 -11 c25 -32 26 -47 5 -84 -16 -26 -16 -29 0 -51 21 -30 20 -39 -2 -39
-11 0 -27 14 -38 35 -10 20 -26 35 -36 35 -14 0 -18 -8 -18 -35 0 -28 -4 -35
-20 -35 -19 0 -20 7 -20 100 l0 100 54 0 c47 0 57 -4 75 -26z m231 12 c0 -11
-14 -16 -47 -18 -41 -3 -48 -6 -51 -25 -3 -21 1 -23 42 -23 34 0 46 -4 46 -15
0 -11 -12 -15 -46 -15 -44 0 -45 -1 -42 -27 3 -26 7 -28 51 -31 33 -2 47 -7
47 -18 0 -11 -15 -14 -65 -14 l-65 0 0 100 0 100 65 0 c50 0 65 -3 65 -14z
m210 0 c0 -11 -14 -16 -47 -18 -41 -3 -48 -6 -51 -25 -3 -21 1 -23 42 -23 34
0 46 -4 46 -15 0 -11 -12 -15 -46 -15 -44 0 -45 -1 -42 -27 3 -26 7 -28 51
-31 33 -2 47 -7 47 -18 0 -11 -15 -14 -65 -14 l-65 0 0 100 0 100 65 0 c50 0
65 -3 65 -14z m198 -2 c15 -10 22 -25 22 -49 0 -43 -22 -65 -66 -65 -32 0 -34
-2 -34 -35 0 -28 -4 -35 -20 -35 -19 0 -20 7 -20 100 l0 100 48 0 c27 0 57 -7
70 -16z m140 -30 c12 -25 26 -43 30 -40 5 3 17 23 27 46 12 26 25 40 37 40 10
0 18 -2 18 -5 0 -2 -16 -33 -35 -68 -19 -35 -35 -78 -35 -95 0 -22 -5 -32 -15
-32 -10 0 -15 10 -15 32 0 17 -16 60 -35 95 -19 35 -35 66 -35 68 0 3 8 5 18
5 11 0 26 -17 40 -46z m252 -11 l33 -57 28 57 c21 40 35 57 49 57 19 0 20 -7
20 -100 0 -93 -1 -100 -20 -100 -18 0 -20 7 -20 63 l-1 62 -25 -47 c-13 -27
-28 -48 -32 -48 -4 0 -19 21 -34 48 l-27 47 -1 -62 c0 -56 -2 -63 -20 -63 -19
0 -20 7 -20 100 0 92 2 100 19 100 13 0 30 -19 51 -57z m337 -25 c17 -46 34
-91 38 -100 5 -14 2 -18 -14 -18 -14 0 -23 8 -27 25 -5 21 -12 25 -45 25 -33
0 -40 -4 -45 -25 -4 -16 -13 -25 -26 -25 -12 0 -18 5 -16 13 83 225 88 229
135 105z m253 67 c0 -10 -10 -15 -30 -15 l-30 0 0 -85 c0 -78 -2 -85 -20 -85
-18 0 -20 7 -20 85 l0 85 -30 0 c-20 0 -30 5 -30 15 0 12 16 15 80 15 64 0 80
-3 80 -15z m110 -25 l0 -40 45 0 45 0 0 40 c0 33 3 40 20 40 19 0 20 -7 20
-100 0 -93 -1 -100 -20 -100 -17 0 -20 7 -20 45 l0 45 -45 0 -45 0 0 -45 c0
-38 -3 -45 -20 -45 -19 0 -20 7 -20 100 0 93 1 100 20 100 17 0 20 -7 20 -40z
m-2274 -412 l17 -33 15 33 c22 45 32 40 31 -15 l-2 -48 -6 40 -6 39 -13 -29
-14 -30 -18 23 -19 23 -4 -33 c-3 -26 -4 -23 -5 15 -1 26 0 47 3 47 2 0 12
-15 21 -32z m144 22 c0 -5 -4 -10 -10 -10 -5 0 -10 5 -10 10 0 6 5 10 10 10 6
0 10 -4 10 -10z m118 3 c-13 -3 -18 -16 -20 -46 l-1 -42 -4 42 c-3 29 -9 43
-21 46 -9 3 1 5 23 5 22 0 32 -2 23 -5z m77 -33 c17 0 25 7 28 23 2 12 4 0 4
-28 0 -27 -2 -40 -4 -27 -3 15 -11 22 -28 22 -17 0 -25 -7 -28 -22 -2 -13 -4
0 -4 27 0 28 2 40 4 28 3 -16 11 -23 28 -23z m173 33 c-13 -3 -18 -16 -20 -46
l-1 -42 -4 42 c-3 29 -9 43 -21 46 -9 3 1 5 23 5 22 0 32 -2 23 -5z m49 -25
c-3 -7 -5 -2 -5 12 0 14 2 19 5 13 2 -7 2 -19 0 -25z m62 -44 c-15 -18 -51
-14 -56 6 -4 12 -3 12 5 2 19 -27 47 -9 51 33 5 40 5 40 9 7 2 -18 -2 -40 -9
-48z m99 69 c-13 -3 -18 -16 -20 -46 l-1 -42 -4 42 c-3 29 -9 43 -21 46 -9 3
1 5 23 5 22 0 32 -2 23 -5z m110 -5 c27 -27 7 -78 -29 -78 -10 0 -20 4 -23 8
-2 4 8 8 22 7 23 0 27 4 27 30 0 23 -5 31 -21 33 -16 2 -25 -4 -32 -25 -6 -15
-11 -22 -11 -15 -3 41 40 67 67 40z m107 -36 c0 -33 -2 -39 -11 -27 -15 20
-31 19 -37 -2 -3 -10 -5 4 -6 30 -1 47 0 48 27 45 25 -3 27 -7 27 -46z m52
-19 c-2 -16 -4 -5 -4 22 0 28 2 40 4 28 2 -13 2 -35 0 -50z m89 30 c-3 -4 -6
-1 -6 6 0 7 -4 9 -10 6 -17 -10 -11 -25 10 -25 11 0 20 -2 20 -4 0 -2 3 -13 6
-23 5 -17 5 -17 -6 0 -6 9 -18 17 -27 17 -9 0 -22 -8 -29 -17 -10 -13 -9 -6 2
22 23 56 26 60 36 41 6 -10 7 -20 4 -23z m92 -46 c24 -4 24 -4 -5 -6 l-33 -1
2 48 1 47 4 -42 c4 -36 7 -42 31 -46z m84 72 c-23 -9 -22 -29 2 -29 18 0 35
-21 29 -36 -6 -15 -49 -19 -57 -5 -3 4 5 6 18 4 29 -6 45 14 19 24 -45 16 -52
54 -9 52 20 0 20 -1 -2 -10z m-1092 -46 c0 -5 -13 -8 -30 -8 -16 0 -30 3 -30
8 0 4 14 7 30 7 17 0 30 -3 30 -7z"/>
<path d="M500 2490 l0 -490 490 0 490 0 0 490 0 490 -490 0 -490 0 0 -490z
m700 -60 l0 -300 -85 0 -85 0 0 300 0 300 85 0 85 0 0 -300z m-260 -115 l0
-195 -85 0 -85 0 0 195 0 195 85 0 85 0 0 -195z"/>
<path d="M2170 2676 c0 -33 2 -36 30 -36 55 0 51 62 -4 68 -24 3 -26 0 -26
-32z"/>
<path d="M2820 2675 c0 -32 2 -35 29 -35 21 0 32 6 36 20 9 27 -11 50 -41 50
-21 0 -24 -5 -24 -35z"/>
<path d="M3563 2655 c-11 -34 -11 -35 18 -35 27 0 28 1 17 28 -19 44 -24 45
-35 7z"/>
<path d="M2610 2290 c0 -13 7 -20 20 -20 13 0 20 7 20 20 0 13 -7 20 -20 20
-13 0 -20 -7 -20 -20z"/>
</g>
</svg>
